HIERARCHY
ROOT Hips
{
	OFFSET 0.000000 0.000000 0.000000
	CHANNELS 6 Xposition Yposition Zposition Zrotation Yrotation Xrotation 
	JOINT LHipJoint
	{
		OFFSET 0.000000 0.000000 0.000000
		CHANNELS 3 Zrotation Yrotation Xrotation
		JOINT LeftUpLeg
		{
			OFFSET 1.363060 -1.794630 0.839290
			CHANNELS 3 Zrotation Yrotation Xrotation
			JOINT LeftLeg
			{
				OFFSET 2.448110 -6.726130 0.000000
				CHANNELS 3 Zrotation Yrotation Xrotation
				JOINT LeftFoot
				{
					OFFSET 2.562200 -7.039590 0.000000
					CHANNELS 3 Zrotation Yrotation Xrotation
					JOINT LeftToeBase
					{
						OFFSET 0.157640 -0.433110 2.322550
						CHANNELS 3 Zrotation Yrotation Xrotation
						End Site
						{
							OFFSET 0.000000 0.000000 0.000000
						}
					}
				}
			}
		}
	}
	JOINT RHipJoint
	{
		OFFSET 0.000000 0.000000 0.000000
		CHANNELS 3 Zrotation Yrotation Xrotation
		JOINT RightUpLeg
		{
			OFFSET -1.305520 -1.794630 0.839290
			CHANNELS 3 Zrotation Yrotation Xrotation
			JOINT RightLeg
			{
				OFFSET -2.542530 -6.985550 0.000000
				CHANNELS 3 Zrotation Yrotation Xrotation
				JOINT RightFoot
				{
					OFFSET -2.568260 -7.056230 0.000000
					CHANNELS 3 Zrotation Yrotation Xrotation
					JOINT RightToeBase
					{
						OFFSET -0.164730 -0.452590 2.363150
						CHANNELS 3 Zrotation Yrotation Xrotation
						End Site
						{
							OFFSET 0.000000 0.000000 0.000000
						}
					}
				}
			}
		}
	}
	JOINT LowerBack
	{
		OFFSET 0.000000 0.000000 0.000000
		CHANNELS 3 Zrotation Yrotation Xrotation
		JOINT Spine
		{
			OFFSET 0.028270 2.035590 -0.193380
			CHANNELS 3 Zrotation Yrotation Xrotation
			JOINT Spine1
			{
				OFFSET 0.056720 2.048850 -0.042750
				CHANNELS 3 Zrotation Yrotation Xrotation
				JOINT Neck
				{
					OFFSET 0.000000 0.000000 0.000000
					CHANNELS 3 Zrotation Yrotation Xrotation
					JOINT Neck1
					{
						OFFSET -0.054170 1.746240 0.172020
						CHANNELS 3 Zrotation Yrotation Xrotation
						JOINT Head
						{
							OFFSET 0.104070 1.761360 -0.123970
							CHANNELS 3 Zrotation Yrotation Xrotation
							End Site
							{
								OFFSET 0.000000 0.000000 0.000000
							}
						}
					}
				}
				JOINT LeftShoulder
				{
					OFFSET 0.000000 0.000000 0.000000
					CHANNELS 3 Zrotation Yrotation Xrotation
					JOINT LeftArm
					{
						OFFSET 3.362410 1.200890 -0.311210
						CHANNELS 3 Zrotation Yrotation Xrotation
						JOINT LeftForeArm
						{
							OFFSET 4.983000 -0.000000 -0.000000
							CHANNELS 3 Zrotation Yrotation Xrotation
							JOINT LeftHand
							{
								OFFSET 3.483560 -0.000000 -0.000000
								CHANNELS 3 Zrotation Yrotation Xrotation
								JOINT LeftFingerBase
								{
									OFFSET 0.000000 0.000000 0.000000
									CHANNELS 3 Zrotation Yrotation Xrotation
									JOINT LeftHandIndex1
									{
										OFFSET 0.715260 -0.000000 -0.000000
										CHANNELS 3 Zrotation Yrotation Xrotation
										End Site
										{
											OFFSET 0.000000 0.000000 0.000000
										}
									}
								}
								JOINT LThumb
								{
									OFFSET 0.000000 0.000000 0.000000
									CHANNELS 3 Zrotation Yrotation Xrotation
									End Site
									{
										OFFSET 0.000000 0.000000 0.000000
									}
								}
							}
						}
					}
				}
				JOINT RightShoulder
				{
					OFFSET 0.000000 0.000000 0.000000
					CHANNELS 3 Zrotation Yrotation Xrotation
					JOINT RightArm
					{
						OFFSET -3.136600 1.374050 -0.404650
						CHANNELS 3 Zrotation Yrotation Xrotation
						JOINT RightForeArm
						{
							OFFSET -5.241900 -0.000000 -0.000000
							CHANNELS 3 Zrotation Yrotation Xrotation
							JOINT RightHand
							{
								OFFSET -3.444170 -0.000000 -0.000000
								CHANNELS 3 Zrotation Yrotation Xrotation
								JOINT RightFingerBase
								{
									OFFSET 0.000000 0.000000 0.000000
									CHANNELS 3 Zrotation Yrotation Xrotation
									JOINT RightHandIndex1
									{
										OFFSET -0.622530 -0.000000 -0.000000
										CHANNELS 3 Zrotation Yrotation Xrotation
										End Site
										{
											OFFSET 0.000000 0.000000 0.000000
										}
									}
								}
								JOINT RThumb
								{
									OFFSET 0.000000 0.000000 0.000000
									CHANNELS 3 Zrotation Yrotation Xrotation
									End Site
									{
										OFFSET 0.000000 0.000000 0.000000
									}
								}
							}
						}
					}
				}
			}
		}
	}
}
MOTION
Frames: 10
Frame Time: 0.008333
39.619023 17.094747 8.335001 -7.455785 -26.790317 3.584865 16.498372 1.912241 -2.076898 -13.521788 -19.329193 -17.552031 -9.178278 9.404362 15.676086 3.590340 -5.493489 -18.250304 5.211300 -13.617900 -41.727900 -22.353818 -3.712099 -5.407000 56.216387 1.605884 8.148068 13.785101 -3.738103 8.599283 0.199572 6.208431 -12.445328 -5.144800 13.545100 -41.444700 -5.340805 -5.324865 29.757121 6.707251 -10.602900 -7.211224 37.694868 5.069354 -33.622044 -10.251794 8.150936 -11.735973 1.099568 14.786777 27.507969 0.415700 3.484500 20.328300 8.031528 -9.597089 2.677515 -129.340242 33.665957 -27.128654 28.779493 -45.459341 -11.309219 -0.293573 3.436514 -3.823626 24.703366 27.663359 10.605200 -7.125000 0.000000 0.000000 -4.793600 55.865900 -1.280100 -4.589379 7.515241 1.421196 42.572704 -9.090613 91.058616 -33.289676 40.628122 -10.471527 0.859520 -1.558669 -17.637599 -25.424367 -20.353302 8.651900 7.125000 0.000000 0.000000 2.303500 -50.182800 -0.294400 
39.578881 17.093647 8.552873 -7.762447 -28.671110 4.035094 16.491497 1.575653 -1.804730 -11.896879 -24.316946 -16.563574 -9.832455 7.504026 10.563559 2.930731 -3.971317 -18.675633 5.271500 -13.683200 -41.982800 -22.530120 -3.533202 -5.473527 57.061691 3.592384 9.398476 14.034493 -3.769579 8.937128 0.067206 5.838364 -13.275187 -5.430600 13.852900 -42.651300 -5.237669 -5.169157 29.689800 6.766315 -10.233438 -7.076774 37.723306 4.978412 -33.039789 -10.335103 8.174595 -12.402292 0.863590 14.940305 26.984205 0.347100 3.530600 20.036700 8.081171 -9.597472 2.714972 -129.452504 33.637762 -27.201710 28.386341 -45.167380 -11.066599 -0.329690 3.475372 -4.350883 24.194978 27.721215 10.376600 -7.125000 0.000000 0.000000 -5.344700 55.788300 -1.417700 -4.609163 7.471115 1.452256 42.939128 -7.834130 91.324999 -33.053137 40.463749 -10.333512 0.854600 -1.558271 -17.513653 -25.562693 -20.689651 8.855400 7.125000 0.000000 0.000000 2.238700 -50.569700 -0.307400 
39.532359 17.089798 8.774154 -8.035785 -30.642659 4.515963 16.557895 1.243832 -1.470361 -10.186884 -29.245036 -15.840130 -9.939696 5.932970 6.263956 2.676132 -4.366978 -17.771786 4.916900 -13.289600 -40.462600 -22.645022 -3.419745 -5.665178 57.220210 3.852113 10.478074 14.088870 -3.555582 8.763017 0.206358 6.412126 -12.628237 -5.891300 14.322200 -44.543800 -5.236319 -4.937502 29.553910 6.823074 -9.822463 -6.940628 37.746633 4.922247 -32.457687 -10.324407 8.225966 -12.955677 0.628765 15.085923 26.484225 0.260000 3.594500 19.754100 8.131793 -9.600053 2.751837 -129.543648 33.649549 -27.349389 27.713437 -44.693508 -10.752381 -0.269273 3.520708 -4.414401 24.724475 27.988411 10.685800 -7.125000 0.000000 0.000000 -4.928200 56.117400 -1.346200 -4.625511 7.439783 1.483337 43.285313 -6.768244 91.452346 -32.783431 40.266885 -10.177393 0.845552 -1.561014 -17.707171 -25.799268 -20.693466 8.941400 7.125000 0.000000 0.000000 2.017700 -50.608500 -0.279000 
39.478358 17.083749 9.000274 -8.154777 -32.699362 4.993744 16.669822 0.885156 -1.151901 -8.608653 -33.573183 -15.656388 -9.789240 4.853990 2.992377 2.407436 -4.525058 -17.233423 4.981300 -13.362700 -40.741800 -22.655575 -3.334410 -5.885255 56.787555 3.309166 10.851313 13.901787 -3.730198 9.396220 0.505655 7.960988 -11.486263 -6.400400 14.805400 -46.568200 -5.358627 -4.651891 29.295858 6.864369 -9.420230 -6.820461 37.770641 4.885428 -31.893725 -10.429972 8.288521 -13.544199 0.543049 15.302554 26.132326 0.295500 3.655700 19.576400 8.177382 -9.607184 2.786762 -129.725849 33.678029 -27.766723 26.811477 -44.064372 -10.376277 -0.127157 3.567747 -3.782049 25.851599 28.384163 11.324300 -7.125000 0.000000 0.000000 -3.943300 56.699600 -1.132100 -4.642392 7.427116 1.511777 43.574709 -5.901638 91.541013 -32.499770 40.046313 -10.009298 0.841651 -1.562435 -17.964505 -25.880735 -20.679082 8.961300 7.125000 0.000000 0.000000 1.945000 -50.603600 -0.268700 
39.418639 17.073521 9.233543 -8.283990 -34.621659 5.558731 16.879561 0.417413 -0.823717 -6.733224 -37.938244 -16.067934 -9.410042 4.277020 0.499061 2.352441 -5.508432 -16.529595 4.917700 -13.290500 -40.465900 -22.711564 -3.222756 -6.129030 56.453213 2.981097 11.242697 13.737533 -3.905090 10.025096 0.783314 9.351652 -10.447569 -6.913400 15.258500 -48.545900 -5.365310 -4.399580 28.934239 6.902774 -9.045544 -6.734943 37.676177 4.833059 -31.433449 -10.695014 8.223051 -14.233921 0.607769 15.390197 25.864374 0.446700 3.637800 19.450200 8.204059 -9.613417 2.817196 -129.852261 33.866742 -27.934024 25.968602 -43.456944 -10.010372 -0.037565 3.608863 -3.474094 26.519604 28.977285 11.856300 -7.125000 0.000000 0.000000 -3.484600 57.414200 -1.060300 -4.659309 7.433857 1.531164 43.806254 -5.384641 91.492742 -32.293272 39.880123 -9.876175 0.842375 -1.562058 -18.131969 -25.722779 -20.522771 8.829200 7.125000 0.000000 0.000000 2.074800 -50.410000 -0.276700 
39.343192 17.061643 9.471652 -8.465998 -36.446581 6.114577 17.128451 0.006030 -0.564172 -5.178701 -41.172913 -16.870205 -9.039213 4.205585 -0.799828 2.362908 -6.893964 -14.691834 5.521700 -13.948300 -43.030700 -22.821839 -3.120121 -6.341234 56.357147 3.009965 11.757163 13.622545 -4.120572 10.759006 0.978595 10.365446 -9.780875 -6.957200 15.295700 -48.712200 -5.369330 -4.170554 28.541398 6.938301 -8.708108 -6.653096 37.558818 4.754618 -30.943765 -10.839906 8.134271 -14.774603 0.619077 15.360125 25.545526 0.520300 3.608500 19.272600 8.242663 -9.627595 2.837152 -129.963367 33.963044 -28.377164 25.040524 -42.736781 -9.591715 0.019901 3.663315 -2.988504 26.504355 29.589870 12.076500 -7.125000 0.000000 0.000000 -3.741800 58.001900 -1.191600 -4.683505 7.451939 1.553938 44.063891 -5.196110 90.889261 -32.104746 39.728267 -9.743688 0.838506 -1.563899 -18.014412 -25.206746 -19.875118 8.348900 7.125000 0.000000 0.000000 2.454400 -49.635200 -0.280600 
39.252238 17.048775 9.713059 -8.576176 -38.168950 6.536908 17.356581 -0.224703 -0.447476 -4.650641 -42.555631 -17.791418 -8.911395 4.399260 -1.080884 2.282124 -8.056829 -11.593240 5.997100 -14.425500 -44.969900 -22.924248 -3.052534 -6.470506 56.290216 3.264055 12.424612 13.551627 -4.291398 11.437547 1.047570 10.824792 -9.559437 -6.836700 15.192900 -48.254200 -5.470110 -3.978827 28.152613 6.958014 -8.460249 -6.569677 37.417704 4.602068 -30.322765 -10.771972 8.048684 -15.238435 0.515572 15.255772 25.193767 0.469300 3.585200 19.112800 8.318515 -9.642285 2.839364 -129.943167 33.815660 -29.168082 23.834931 -41.739496 -9.076624 0.135814 3.727956 -1.874642 26.589828 30.021601 12.256300 -7.125000 0.000000 0.000000 -3.840000 58.404300 -1.260100 -4.725030 7.473934 1.576094 44.235299 -5.038387 90.208494 -32.031144 39.694572 -9.701382 0.834821 -1.565832 -18.236028 -25.158730 -19.462124 8.144100 7.125000 0.000000 0.000000 2.428500 -49.180600 -0.250500 
39.153255 17.036567 9.958646 -8.737009 -39.733377 6.922146 17.547045 -0.282529 -0.454408 -5.053019 -42.326613 -18.670234 -9.031842 4.774474 -0.492807 2.135051 -8.817238 -7.257883 5.654900 -14.085400 -43.580500 -22.998130 -3.031232 -6.536961 56.175201 3.356350 13.071331 13.474044 -4.439588 12.063977 1.078360 11.184076 -9.559973 -6.844000 15.199100 -48.281900 -5.453114 -3.868282 27.810692 6.975229 -8.274363 -6.503309 37.130595 4.382091 -29.716578 -10.613814 7.849570 -15.763528 0.295901 14.962760 24.791008 0.313100 3.494300 18.971000 8.403323 -9.654789 2.833922 -129.744192 33.710398 -29.633094 22.567074 -40.668219 -8.571546 0.298288 3.777545 -0.868994 27.307173 30.377982 12.713200 -7.125000 0.000000 0.000000 -3.257200 58.870700 -1.105000 -4.778830 7.492668 1.586551 44.429852 -4.909684 89.787785 -31.963085 39.685784 -9.693422 0.835179 -1.569848 -18.751887 -25.741896 -19.666272 8.435200 7.125000 0.000000 0.000000 1.909100 -49.476000 -0.210800 
39.047234 17.028649 10.206763 -8.981504 -41.191827 7.291809 17.716348 -0.237112 -0.499737 -6.048253 -41.422666 -19.324370 -9.301910 5.301362 0.767983 1.977137 -9.017868 -2.333998 4.901800 -13.272300 -40.396600 -23.078418 -3.040689 -6.583419 56.119653 3.371828 13.755873 13.388048 -4.610191 12.746824 1.116614 11.515222 -9.492016 -6.646500 15.026800 -47.524200 -5.343363 -3.785169 27.558023 6.989935 -8.082236 -6.445412 36.777990 4.176214 -29.219143 -10.435769 7.522221 -16.289028 0.078685 14.462555 24.416930 0.130100 3.322500 18.854200 8.468723 -9.667201 2.829026 -129.548767 33.744911 -30.034583 21.421212 -39.686996 -8.142993 0.459006 3.812858 -0.151914 28.254382 30.817884 13.336600 -7.125000 0.000000 0.000000 -2.456200 59.493200 -0.869700 -4.842746 7.513012 1.593434 44.843452 -4.956922 89.099736 -31.651630 39.467034 -9.547765 0.839904 -1.577628 -18.859150 -25.995698 -20.071510 8.707400 7.125000 0.000000 0.000000 1.736000 -49.940600 -0.211500 
38.932744 17.022050 10.454550 -9.317230 -42.655972 7.752810 17.867878 -0.166266 -0.525630 -7.153339 -40.604285 -19.735320 -9.592212 5.971328 2.460711 1.858098 -8.601756 2.186699 4.064800 -12.246100 -36.608200 -23.182434 -3.059036 -6.629737 56.168563 3.455585 14.445175 13.300287 -4.805842 13.476936 1.177944 11.800891 -9.216394 -6.157200 14.579000 -45.609600 -5.223172 -3.674944 27.286067 7.001887 -7.848683 -6.387577 36.441025 4.009671 -28.764175 -10.380215 7.300037 -16.744126 0.180589 14.145877 24.220087 0.182700 3.216500 18.779300 8.515196 -9.670322 2.822272 -129.324955 33.837992 -30.398895 20.399305 -38.789489 -7.779682 0.597488 3.847995 0.311169 29.178213 31.475641 14.066600 -7.125000 0.000000 0.000000 -1.743100 60.352400 -0.652800 -4.904952 7.536563 1.599906 45.141687 -5.136802 88.304626 -31.363757 39.259999 -9.413583 0.851122 -1.581905 -19.010705 -26.052537 -20.502899 8.923200 7.125000 0.000000 0.000000 1.759400 -50.406500 -0.234500 
